<svg xmlns="http://www.w3.org/2000/svg" xmlns:xlink="http://www.w3.org/1999/xlink" viewBox="0 0 111.618 39.962" overflow="visible"><g><path d="M 0 22.147 L 0 1.086 C 0 0.486 0.486 0 1.086 0 L 18.826 0 C 19.426 0 19.912 0.486 19.912 1.086 L 19.912 5.563 C 19.912 6.163 19.426 6.649 18.826 6.649 L 7.724 6.649 C 7.435 6.649 7.159 6.763 6.955 6.967 C 6.751 7.17 6.637 7.447 6.637 7.735 L 6.637 15.51 C 6.637 16.11 7.124 16.596 7.724 16.596 L 15.498 16.596 C 15.786 16.596 16.063 16.482 16.267 16.278 C 16.47 16.075 16.585 15.798 16.585 15.51 L 16.585 14.372 C 16.585 13.772 16.099 13.286 15.498 13.286 L 11.034 13.286 C 10.745 13.287 10.469 13.172 10.265 12.968 C 10.061 12.764 9.947 12.488 9.947 12.2 L 9.947 11.051 C 9.947 10.763 10.062 10.487 10.265 10.283 C 10.469 10.079 10.745 9.965 11.034 9.965 L 26.801 9.965 C 27.089 9.965 27.365 10.079 27.569 10.283 C 27.773 10.487 27.887 10.763 27.887 11.051 L 27.887 22.153 C 27.887 22.753 27.401 23.24 26.801 23.24 L 1.087 23.24 C 0.798 23.24 0.522 23.126 0.318 22.922 C 0.114 22.718 0 22.441 0 22.153" fill="rgb(255,255,255)"></path><path d="M 29.106 22.147 L 29.106 7.735 C 29.106 7.135 28.621 6.649 28.02 6.649 L 22.086 6.649 C 21.798 6.649 21.521 6.535 21.318 6.331 C 21.114 6.127 21 5.851 21 5.562 L 21 1.087 C 21 0.487 21.486 0 22.086 0 L 42.896 0 C 43.184 0 43.46 0.115 43.664 0.318 C 43.867 0.522 43.982 0.799 43.982 1.087 L 43.982 5.563 C 43.982 6.163 43.496 6.649 42.896 6.649 L 36.83 6.649 C 36.542 6.649 36.266 6.764 36.062 6.967 C 35.858 7.171 35.744 7.447 35.744 7.735 L 35.744 22.148 C 35.744 22.748 35.258 23.234 34.658 23.234 L 30.193 23.234 C 29.904 23.234 29.628 23.12 29.424 22.916 C 29.221 22.712 29.106 22.436 29.106 22.148 Z M 50.705 0 C 50.993 0 51.269 0.114 51.473 0.318 C 51.677 0.522 51.791 0.798 51.791 1.087 L 51.791 8.725 C 51.798 8.773 51.802 8.822 51.802 8.872 C 51.802 9.472 52.289 9.959 52.889 9.959 L 54.015 9.959 C 54.303 9.959 54.58 9.844 54.783 9.64 C 54.987 9.437 55.102 9.16 55.101 8.872 L 55.101 7.735 C 55.101 7.447 55.215 7.17 55.419 6.967 C 55.623 6.763 55.899 6.648 56.187 6.648 L 57.348 6.648 C 57.948 6.648 58.434 7.135 58.434 7.735 L 58.434 8.872 C 58.434 9.472 58.92 9.959 59.52 9.959 L 60.646 9.959 C 60.935 9.959 61.211 9.844 61.415 9.64 C 61.618 9.437 61.733 9.16 61.733 8.872 C 61.733 8.822 61.737 8.773 61.744 8.725 L 61.744 1.087 C 61.744 0.798 61.858 0.522 62.062 0.318 C 62.266 0.114 62.542 0 62.83 0 L 67.295 0 C 67.583 0 67.86 0.114 68.063 0.318 C 68.267 0.522 68.382 0.798 68.381 1.087 L 68.381 22.147 C 68.381 22.747 67.896 23.233 67.296 23.233 L 62.819 23.233 C 62.531 23.234 62.255 23.119 62.051 22.915 C 61.847 22.712 61.733 22.435 61.733 22.147 L 61.733 21.01 C 61.733 20.41 61.246 19.923 60.646 19.923 L 59.509 19.923 C 59.221 19.923 58.945 19.809 58.741 19.605 C 58.537 19.402 58.423 19.125 58.423 18.837 L 58.423 17.688 C 58.423 17.088 57.936 16.602 57.336 16.602 L 56.199 16.602 L 56.088 16.608 C 55.534 16.664 55.112 17.131 55.113 17.688 L 55.113 18.837 C 55.113 19.125 54.998 19.402 54.794 19.605 C 54.591 19.809 54.314 19.924 54.026 19.923 L 52.889 19.923 C 52.601 19.923 52.324 20.038 52.121 20.241 C 51.917 20.445 51.802 20.721 51.802 21.01 L 51.802 22.147 C 51.802 22.435 51.688 22.712 51.484 22.915 C 51.28 23.119 51.004 23.234 50.716 23.233 L 46.24 23.233 C 45.952 23.233 45.675 23.119 45.471 22.916 C 45.397 22.842 45.335 22.757 45.285 22.665 C 45.198 22.506 45.153 22.328 45.154 22.147 L 45.154 1.087 C 45.154 0.487 45.64 0 46.24 0 Z" fill="rgb(255,255,255)"></path><path d="M 13.228 38.919 L 13.228 26.376 C 13.228 25.801 13.669 25.334 14.213 25.334 L 24.08 25.334 C 24.623 25.334 25.065 25.8 25.065 26.376 L 25.065 32.654 C 25.065 33.23 25.506 33.697 26.049 33.697 L 26.056 33.697 C 26.599 33.697 27.04 34.164 27.04 34.739 L 27.04 38.918 C 27.04 39.493 26.599 39.96 26.056 39.96 L 14.213 39.96 C 13.669 39.96 13.228 39.493 13.228 38.918 M 21.119 30.562 C 21.119 29.986 20.678 29.519 20.134 29.519 L 18.159 29.519 C 17.615 29.519 17.174 29.986 17.174 30.562 C 17.174 31.137 17.615 31.604 18.159 31.604 L 20.134 31.604 C 20.678 31.604 21.119 31.138 21.119 30.562 Z M 23.089 34.74 C 23.089 34.165 22.648 33.698 22.104 33.698 L 18.159 33.698 C 17.616 33.698 17.174 34.165 17.174 34.74 C 17.174 35.316 17.615 35.783 18.159 35.783 L 22.105 35.783 C 22.648 35.783 23.089 35.316 23.089 34.74 Z M 49.201 38.919 L 49.201 36.827 C 49.201 36.251 49.642 35.784 50.186 35.784 L 58.078 35.784 C 58.621 35.784 59.062 35.317 59.062 34.742 C 59.062 34.166 58.621 33.699 58.078 33.699 L 50.186 33.699 C 49.642 33.699 49.201 33.233 49.201 32.657 L 49.201 26.376 C 49.201 25.801 49.642 25.334 50.186 25.334 L 62.029 25.334 C 62.572 25.334 63.013 25.8 63.013 26.376 L 63.013 28.475 C 63.013 29.051 62.572 29.518 62.029 29.518 L 54.13 29.518 C 53.587 29.518 53.146 29.985 53.146 30.56 C 53.146 31.136 53.587 31.603 54.13 31.603 L 62.029 31.603 C 62.572 31.603 63.013 32.07 63.013 32.645 L 63.013 38.916 C 63.013 39.492 62.572 39.959 62.029 39.959 L 50.186 39.959 C 49.642 39.959 49.201 39.492 49.201 38.916 M 32.27 25.334 L 28.298 25.334 L 28.298 39.96 L 32.27 39.96 L 32.27 25.333 Z M 48.009 25.334 L 44.038 25.334 L 44.038 39.96 L 48.009 39.96 L 48.009 25.333 Z M 68.425 25.334 L 64.454 25.334 L 64.454 39.96 L 68.425 39.96 L 68.425 25.333 Z M 11.545 28.057 L 7.4 28.057 L 7.4 39.962 L 4.07 39.962 L 4.07 28.057 L 0 28.057 L 0 25.334 L 11.545 25.334 Z M 36.994 37.148 L 43.003 37.148 L 43.003 39.96 L 33.542 39.96 L 33.542 25.333 L 36.994 25.333 Z" fill="rgb(0,253,255)"></path><path d="M 71.667 5.275 L 84.828 5.275 L 84.828 7.904 L 71.667 7.904 L 71.667 18.437 L 90.104 18.437 L 90.104 13.169 L 76.934 13.169 L 76.934 10.541 L 90.104 10.541 L 90.104 0 L 71.667 0 Z M 93.181 18.437 L 111.618 18.437 L 111.618 0 L 93.181 0 Z M 98.449 5.275 L 106.342 5.275 L 106.342 13.169 L 98.449 13.169 Z" fill="rgb(193,61,255)"></path><path d="M 103.716 7.833 L 101.077 7.833 L 101.077 10.472 L 103.716 10.472 Z M 71.667 26.721 L 84.828 26.721 L 84.828 29.35 L 71.667 29.35 L 71.667 39.883 L 90.101 39.883 L 90.101 34.615 L 76.932 34.615 L 76.932 31.986 L 90.101 31.986 L 90.101 21.446 L 71.667 21.446 Z M 98.443 29.35 L 98.443 26.722 L 108.976 26.722 L 108.976 21.446 L 93.178 21.446 L 93.178 39.883 L 111.615 39.883 L 111.615 29.35 Z M 106.337 34.615 L 98.443 34.615 L 98.443 31.986 L 106.337 31.986 Z" fill="rgb(193,61,255)"></path></g></svg>
